<svg xmlns="http://www.w3.org/2000/svg" version="1.1" xmlns:xlink="http://www.w3.org/1999/xlink" xmlns:svgjs="http://svgjs.dev/svgjs" width="1000" height="623" viewBox="0 0 1000 623"><g transform="matrix(1,0,0,1,-0.6060606060606233,0.2522267206477409)"><svg viewBox="0 0 396 247" data-background-color="#ffffff" preserveAspectRatio="xMidYMid meet" height="623" width="1000" xmlns="http://www.w3.org/2000/svg" xmlns:xlink="http://www.w3.org/1999/xlink"><g id="tight-bounds" transform="matrix(1,0,0,1,0.2400000000000091,-0.09999999999999432)"><svg viewBox="0 0 395.52 247.2" height="247.2" width="395.52"><g><svg></svg></g><g><svg viewBox="0 0 395.52 247.2" height="247.2" width="395.52"><g transform="matrix(1,0,0,1,75.54432,88.11802838709676)"><svg viewBox="0 0 244.43135999999998 70.96394322580646" height="70.96394322580646" width="244.43135999999998"><g><svg viewBox="0 0 244.43135999999998 70.96394322580646" height="70.96394322580646" width="244.43135999999998"><g><svg viewBox="0 0 244.43135999999998 70.96394322580646" height="70.96394322580646" width="244.43135999999998"><g><svg viewBox="0 0 244.43135999999998 70.96394322580646" height="70.96394322580646" width="244.43135999999998"><g id="textblocktransform"><svg viewBox="0 0 244.43135999999998 70.96394322580646" height="70.96394322580646" width="244.43135999999998" id="textblock"><g><svg viewBox="0 0 244.43135999999998 70.96394322580646" height="70.96394322580646" width="244.43135999999998"><g transform="matrix(1,0,0,1,0,0)"><svg width="244.43135999999998" viewBox="2.5999999046325684 -35.599998474121094 161.17999267578125 46.79999923706055" height="70.96394322580646" data-palette-color="#2a160c"><path d="M16.9 0.6L16.9 0.6Q13.8 0.6 11.2-0.55 8.6-1.7 6.68-3.88 4.75-6.05 3.68-9.22 2.6-12.4 2.6-16.4L2.6-16.4Q2.6-20.35 3.7-23.5 4.8-26.65 6.75-28.85 8.7-31.05 11.35-32.23 14-33.4 17.15-33.4L17.15-33.4Q20.15-33.4 22.43-32.18 24.7-30.95 26.15-29.35L26.15-29.35 23.9-26.65Q22.6-28.05 20.95-28.9 19.3-29.75 17.2-29.75L17.2-29.75Q14.85-29.75 12.95-28.83 11.05-27.9 9.7-26.18 8.35-24.45 7.63-22 6.9-19.55 6.9-16.5L6.9-16.5Q6.9-13.4 7.63-10.93 8.35-8.45 9.65-6.7 10.95-4.95 12.83-4 14.7-3.05 17.05-3.05L17.05-3.05Q19.45-3.05 21.25-4.03 23.05-5 24.65-6.75L24.65-6.75 26.95-4.15Q25-1.9 22.55-0.65 20.1 0.6 16.9 0.6ZM36.75 0L32.65 0 32.65-35.6 36.75-35.6 36.75-25.9 36.6-20.9Q38.35-22.55 40.25-23.73 42.15-24.9 44.7-24.9L44.7-24.9Q48.55-24.9 50.32-22.5 52.1-20.1 52.1-15.4L52.1-15.4 52.1 0 48 0 48-14.85Q48-18.3 46.9-19.83 45.8-21.35 43.4-21.35L43.4-21.35Q41.5-21.35 40.05-20.4 38.6-19.45 36.75-17.6L36.75-17.6 36.75 0ZM69.3 0.6L69.3 0.6Q67.05 0.6 65.02-0.25 63-1.1 61.45-2.73 59.9-4.35 58.97-6.73 58.05-9.1 58.05-12.1L58.05-12.1Q58.05-15.15 58.97-17.53 59.9-19.9 61.45-21.55 63-23.2 65.02-24.05 67.05-24.9 69.3-24.9L69.3-24.9Q71.55-24.9 73.57-24.05 75.59-23.2 77.15-21.55 78.7-19.9 79.62-17.53 80.55-15.15 80.55-12.1L80.55-12.1Q80.55-9.1 79.62-6.73 78.7-4.35 77.15-2.73 75.59-1.1 73.57-0.25 71.55 0.6 69.3 0.6ZM69.3-2.8L69.3-2.8Q70.84-2.8 72.15-3.48 73.45-4.15 74.37-5.38 75.3-6.6 75.8-8.3 76.3-10 76.3-12.1L76.3-12.1Q76.3-14.2 75.8-15.93 75.3-17.65 74.37-18.9 73.45-20.15 72.15-20.83 70.84-21.5 69.3-21.5L69.3-21.5Q67.75-21.5 66.45-20.83 65.15-20.15 64.22-18.9 63.3-17.65 62.8-15.93 62.3-14.2 62.3-12.1L62.3-12.1Q62.3-10 62.8-8.3 63.3-6.6 64.22-5.38 65.15-4.15 66.45-3.48 67.75-2.8 69.3-2.8ZM95.14 11.2L95.14 11.2Q92.89 11.2 91.04 10.78 89.19 10.35 87.87 9.5 86.54 8.65 85.82 7.45 85.09 6.25 85.09 4.65L85.09 4.65Q85.09 3.1 86.04 1.7 86.99 0.3 88.64-0.85L88.64-0.85 88.64-1.05Q87.74-1.6 87.12-2.58 86.49-3.55 86.49-5L86.49-5Q86.49-6.55 87.34-7.7 88.19-8.85 89.14-9.5L89.14-9.5 89.14-9.7Q87.94-10.7 86.97-12.38 85.99-14.05 85.99-16.25L85.99-16.25Q85.99-18.25 86.72-19.85 87.44-21.45 88.69-22.58 89.94-23.7 91.62-24.3 93.29-24.9 95.14-24.9L95.14-24.9Q96.14-24.9 97.02-24.73 97.89-24.55 98.59-24.3L98.59-24.3 107.04-24.3 107.04-21.15 102.04-21.15Q102.89-20.3 103.47-19 104.04-17.7 104.04-16.15L104.04-16.15Q104.04-14.2 103.34-12.63 102.64-11.05 101.44-9.98 100.24-8.9 98.62-8.3 96.99-7.7 95.14-7.7L95.14-7.7Q94.24-7.7 93.29-7.93 92.34-8.15 91.49-8.55L91.49-8.55Q90.84-8 90.39-7.33 89.94-6.65 89.94-5.65L89.94-5.65Q89.94-4.5 90.84-3.75 91.74-3 94.24-3L94.24-3 98.94-3Q103.19-3 105.32-1.63 107.44-0.25 107.44 2.8L107.44 2.8Q107.44 4.5 106.59 6.03 105.74 7.55 104.14 8.7 102.54 9.85 100.27 10.53 97.99 11.2 95.14 11.2ZM95.14-10.45L95.14-10.45Q96.19-10.45 97.12-10.85 98.04-11.25 98.77-12 99.49-12.75 99.89-13.83 100.29-14.9 100.29-16.25L100.29-16.25Q100.29-18.95 98.79-20.43 97.29-21.9 95.14-21.9L95.14-21.9Q92.99-21.9 91.49-20.43 89.99-18.95 89.99-16.25L89.99-16.25Q89.99-14.9 90.39-13.83 90.79-12.75 91.52-12 92.24-11.25 93.17-10.85 94.09-10.45 95.14-10.45ZM95.74 8.35L95.74 8.35Q97.49 8.35 98.92 7.93 100.34 7.5 101.34 6.83 102.34 6.15 102.89 5.25 103.44 4.35 103.44 3.4L103.44 3.4Q103.44 1.7 102.19 1.05 100.94 0.4 98.54 0.4L98.54 0.4 94.34 0.4Q93.64 0.4 92.82 0.33 91.99 0.25 91.19 0L91.19 0Q89.89 0.95 89.29 2 88.69 3.05 88.69 4.1L88.69 4.1Q88.69 6.05 90.57 7.2 92.44 8.35 95.74 8.35ZM120.89 0.6L120.89 0.6Q118.64 0.6 116.62-0.25 114.59-1.1 113.04-2.73 111.49-4.35 110.56-6.73 109.64-9.1 109.64-12.1L109.64-12.1Q109.64-15.15 110.56-17.53 111.49-19.9 113.04-21.55 114.59-23.2 116.62-24.05 118.64-24.9 120.89-24.9L120.89-24.9Q123.14-24.9 125.17-24.05 127.19-23.2 128.74-21.55 130.29-19.9 131.22-17.53 132.14-15.15 132.14-12.1L132.14-12.1Q132.14-9.1 131.22-6.73 130.29-4.35 128.74-2.73 127.19-1.1 125.17-0.25 123.14 0.6 120.89 0.6ZM120.89-2.8L120.89-2.8Q122.44-2.8 123.74-3.48 125.04-4.15 125.97-5.38 126.89-6.6 127.39-8.3 127.89-10 127.89-12.1L127.89-12.1Q127.89-14.2 127.39-15.93 126.89-17.65 125.97-18.9 125.04-20.15 123.74-20.83 122.44-21.5 120.89-21.5L120.89-21.5Q119.34-21.5 118.04-20.83 116.74-20.15 115.81-18.9 114.89-17.65 114.39-15.93 113.89-14.2 113.89-12.1L113.89-12.1Q113.89-10 114.39-8.3 114.89-6.6 115.81-5.38 116.74-4.15 118.04-3.48 119.34-2.8 120.89-2.8ZM140.44-21.55L137.94-21.55 137.14-29.9 136.99-34.5 141.39-34.5 141.24-29.9 140.44-21.55ZM154.88 0.6L154.88 0.6Q152.28 0.6 149.94-0.35 147.59-1.3 145.84-2.75L145.84-2.75 147.88-5.5Q149.49-4.2 151.16-3.4 152.84-2.6 155.03-2.6L155.03-2.6Q157.44-2.6 158.63-3.7 159.84-4.8 159.84-6.4L159.84-6.4Q159.84-7.35 159.34-8.05 158.84-8.75 158.06-9.28 157.28-9.8 156.28-10.2 155.28-10.6 154.28-11L154.28-11Q152.99-11.45 151.69-12.03 150.38-12.6 149.36-13.43 148.34-14.25 147.69-15.35 147.03-16.45 147.03-18L147.03-18Q147.03-19.45 147.61-20.73 148.19-22 149.26-22.93 150.34-23.85 151.88-24.38 153.44-24.9 155.38-24.9L155.38-24.9Q157.69-24.9 159.61-24.1 161.53-23.3 162.94-22.15L162.94-22.15 160.99-19.55Q159.74-20.5 158.38-21.1 157.03-21.7 155.44-21.7L155.44-21.7Q153.13-21.7 152.06-20.65 150.99-19.6 150.99-18.2L150.99-18.2Q150.99-17.35 151.44-16.73 151.88-16.1 152.63-15.63 153.38-15.15 154.36-14.78 155.34-14.4 156.38-14L156.38-14Q157.69-13.5 159.01-12.95 160.34-12.4 161.38-11.58 162.44-10.75 163.11-9.55 163.78-8.35 163.78-6.65L163.78-6.65Q163.78-5.15 163.21-3.85 162.63-2.55 161.51-1.55 160.38-0.55 158.71 0.03 157.03 0.6 154.88 0.6Z" opacity="1" transform="matrix(1,0,0,1,0,0)" fill="#2a160c" class="wordmark-text-0" data-fill-palette-color="primary" id="text-0"></path></svg></g></svg></g></svg></g></svg></g></svg></g></svg></g></svg></g><path d="M206.464 82.118L206.464 25.373 10.01 25.373 10.01 221.827 206.464 221.827 206.464 165.082 200.065 165.082 200.065 215.427 16.41 215.427 16.41 31.773 200.065 31.773 200.065 82.118Z" fill="#2a160c" stroke="transparent" data-fill-palette-color="primary"></path></svg></g><defs></defs></svg><rect width="395.52" height="247.2" fill="none" stroke="none" visibility="hidden"></rect></g></svg></g></svg>